HIERARCHY
ROOT Hips
{
  OFFSET 57.8838 95.319 338.509
  CHANNELS 6 Xposition Yposition Zposition Zrotation Xrotation Yrotation
  JOINT LeftUpLeg
  {
    OFFSET 8.64259 1.95398 -2.38835
    CHANNELS 3 Zrotation Xrotation Yrotation
    JOINT LeftLeg
    {
      OFFSET 43.7702 0 0
      CHANNELS 3 Zrotation Xrotation Yrotation
      JOINT LeftFoot
      {
        OFFSET 40.6238 0 0
        CHANNELS 3 Zrotation Xrotation Yrotation
        JOINT LeftToeBase
        {
          OFFSET 12.7242 0 0
          CHANNELS 3 Zrotation Xrotation Yrotation
          End Site
          {
            OFFSET 0 0 0
          }
        }
      }
    }
  }
  JOINT RightUpLeg
  {
    OFFSET -8.2249 1.95398 -2.59336
    CHANNELS 3 Zrotation Xrotation Yrotation
    JOINT RightLeg
    {
      OFFSET 43.5653 0 0
      CHANNELS 3 Zrotation Xrotation Yrotation
      JOINT RightFoot
      {
        OFFSET 40.6238 0 0
        CHANNELS 3 Zrotation Xrotation Yrotation
        JOINT RightToeBase
        {
          OFFSET 12.7242 0 0
          CHANNELS 3 Zrotation Xrotation Yrotation
          End Site
          {
            OFFSET 0 0 0
          }
        }
      }
    }
  }
  JOINT Spine
  {
    OFFSET 0.165834 0.87714 6.61349
    CHANNELS 3 Zrotation Xrotation Yrotation
    JOINT Spine1
    {
      OFFSET 7.38963 1.71661e-005 0
      CHANNELS 3 Zrotation Xrotation Yrotation
      JOINT Spine2
      {
        OFFSET 11.9445 1.14441e-005 0
        CHANNELS 3 Zrotation Xrotation Yrotation
        JOINT Spine3
        {
          OFFSET 14.7254 4.19617e-005 0
          CHANNELS 3 Zrotation Xrotation Yrotation
          JOINT Spine4
          {
            OFFSET 10.9679 0 0
            CHANNELS 3 Zrotation Xrotation Yrotation
            JOINT RightShoulder
            {
              OFFSET 2.46616 -1.6653 3.69651
              CHANNELS 3 Zrotation Xrotation Yrotation
              JOINT RightArm
              {
                OFFSET 13.0012 0 0
                CHANNELS 3 Zrotation Xrotation Yrotation
                JOINT RightForeArm
                {
                  OFFSET 28.7848 1.62311e-005 0
                  CHANNELS 3 Zrotation Xrotation Yrotation
                  JOINT RightHand
                  {
                    OFFSET 26.5688 1.62095e-005 0
                    CHANNELS 3 Zrotation Xrotation Yrotation
                    End Site
                    {
                      OFFSET 0 0 0
                    }
                  }
                }
              }
            }
            JOINT LeftShoulder
            {
              OFFSET 2.38034 -1.29275 -3.7523
              CHANNELS 3 Zrotation Xrotation Yrotation
              JOINT LeftArm
              {
                OFFSET 16.3182 6.07031e-005 0
                CHANNELS 3 Zrotation Xrotation Yrotation
                JOINT LeftForeArm
                {
                  OFFSET 27.0901 0 0
                  CHANNELS 3 Zrotation Xrotation Yrotation
                  JOINT LeftHand
                  {
                    OFFSET 24.5451 1.51738e-005 0
                    CHANNELS 3 Zrotation Xrotation Yrotation
                    End Site
                    {
                      OFFSET 0 0 0
                    }
                  }
                }
              }
            }
            JOINT Neck
            {
              OFFSET 5.0226 -0.0266342 0
              CHANNELS 3 Zrotation Xrotation Yrotation
              JOINT Head
              {
                OFFSET 6.69364 2.86102e-005 0
                CHANNELS 3 Zrotation Xrotation Yrotation
                End Site
                {
                  OFFSET 0 0 0
                }
              }
            }
          }
        }
      }
    }
  }
}
MOTION
Frames:	9
Frame Time:	0.0416667
-166.51 92.0807 153.635 98.9974 43.7295 85.9001 176.562 20.8203 87.7547 -8.42721 5.8176 0.604958 57.7773 -1.63146 4.43973 43.2122 6.95453 12.4413 172.744 -10.5116 94.7937 -28.1512 -6.9527 -1.06983 71.2038 -6.11579 12.6472 37.4535 -11.2314 1.5267 0.543183 7.77327 -90.5367 11.3308 0.830814 -1.15201 -0.340427 0.779283 -1.18745 -22.8752 1.13861 -0.849076 -2.86257 1.1386 -0.849082 97.365 -48.8479 -89.5661 28.3887 -10.8355 -11.3118 -10.4828 -7.84681 -45.2853 -15.7361 -0.679711 -0.168677 -79.9035 -56.3985 94.2019 -28.9241 -35.5012 -2.64001 7.41725 72.2155 0.0314215 -8.47171 0.315836 -9.68791 16.8491 2.98438 -10.9003 -20.8405 3.43827 15.809 
-158.138 90.9115 145.225 100.495 42.7256 83.531 177.221 20.7542 85.3535 -20.899 12.4121 0.441771 55.2667 -4.22779 9.2815 37.2805 3.69231 8.07098 170.362 -10.327 87.5942 -40.5404 -10.4699 -1.35127 61.0951 6.48333 18.5486 31.0849 -3.34967 -4.99435 0.530483 7.83871 -90.1294 11.2012 0.995714 -0.354134 -0.469368 0.979158 -0.397621 -23.0079 1.05609 -0.0384791 -2.99521 1.0561 -0.0384868 97.4741 -49.3276 -89.3492 30.3711 -11.8029 -9.65238 -10.9845 -9.51378 -42.3339 -14.7751 -0.537463 -1.00095 -79.3064 -54.9812 95.0015 -29.5026 -34.8394 -3.47704 6.99161 71.6024 0.0299806 -8.7083 0.328367 -9.88354 17.456 3.21364 -13.7865 -21.8144 4.25866 16.7849 
-150.647 90.6076 137.583 103.601 42.9937 78.5574 178.647 17.3259 81.3004 -31.9059 14.5486 -0.111011 59.6278 -0.00551866 13.2698 34.561 2.33013 3.18119 170.091 1.51935 88.6562 -63.053 -16.8841 -1.50809 50.7507 16.3205 11.8242 18.4295 15.7663 -6.13149 0.282205 8.03716 -89.6698 10.7968 0.71435 0.591192 -0.874024 0.739693 0.559166 -23.4091 0.503646 0.778537 -3.39643 0.503672 0.778551 97.3363 -49.8474 -89.5141 32.4582 -10.6672 -7.59661 -7.44138 -10.6128 -35.1477 -15.2606 -0.524733 -1.2273 -80.2539 -55.0043 93.6471 -30.9946 -32.2925 -9.4179 5.93336 69.9715 0.0248082 -7.90421 0.29147 -10.0114 16.7746 4.11267 -14.0285 -21.4311 5.03333 17.681 
-143.296 92.1351 130.289 105.085 45.6908 79.444 179.407 9.37945 82.4558 -32.5319 16.8228 1.4348 63.1366 4.30354 14.2465 37.4796 3.60141 2.84565 168.885 12.1934 89.4637 -72.5575 -13.7018 -0.584145 55.2833 10.147 9.04905 22.6193 9.10011 -4.43282 -0.114691 8.03446 -89.8996 10.8051 -0.182002 0.216511 -0.865863 -0.172289 0.224311 -23.401 -0.238641 0.151811 -3.38839 -0.238649 0.151802 97.3325 -49.908 -89.5145 33.4603 -11.0158 -6.42577 -3.21867 -11.6141 -25.401 -15.5737 -0.83466 1.0541 -80.6322 -54.9031 93.1001 -33.3003 -27.13 -17.7339 3.55246 67.2223 0.0145357 -4.76905 0.0895078 -9.36854 14.8712 4.97625 -14.448 -21.7432 5.45939 19.167 
-136.09 93.4678 123.597 105.079 50.3173 81.0864 -179.362 2.11697 84.7274 -30.4395 19.8687 2.8844 65.0797 6.83754 13.1204 40.2965 4.82906 2.91354 166.738 19.9501 93.1966 -61.6237 -8.17791 1.76364 59.7588 3.42061 7.49414 28.2553 0.981635 -5.07674 -0.533843 7.93538 -90.1954 11.001 -1.15334 -0.279283 -0.6695 -1.1645 -0.228254 -23.2077 -1.01609 -0.613025 -3.19507 -1.01607 -0.613025 96.9411 -50.2486 -90.0877 33.6804 -8.30436 -3.31532 -1.0176 -13.1715 -19.0863 -12.817 -0.792816 2.05576 -80.3486 -53.4954 93.4423 -35.0343 -19.1099 -24.7636 2.88231 60.3479 -4.06595 -2.1063 -0.106575 -9.15084 15.698 4.53383 -13.7749 -23.1556 5.01722 17.4902 
-129.129 94.2203 117.204 105.218 54.8439 79.8494 -178.231 -4.76321 86.1426 -26.0889 22.5458 3.32998 64.4582 7.81092 11.4777 43.2679 6.39739 6.05189 169.273 20.9282 91.3138 -33.9034 -1.40481 3.1829 62.1244 1.00272 8.819 30.3071 -2.01981 -5.25981 -0.873428 7.91393 -90.1445 11.0462 -1.80558 -0.114248 -0.623514 -1.80885 -0.0346514 -23.1677 -1.68773 -0.651767 -3.15509 -1.68775 -0.65177 97.1597 -51.2422 -89.6523 33.7931 -4.2784 -0.571455 0.608882 -13.9331 -14.6176 -11.9151 -0.739568 2.06773 -80.7882 -52.3149 92.74 -34.1835 -12.2438 -29.97 9.04704 49.8494 -17.5403 -1.12434 -0.158355 -10.0708 16.2562 3.15692 -13.8187 -22.6588 3.93308 16.8828 
-121.801 94.4521 110.643 105.198 57.463 77.5445 -177.944 -12.1165 86.8669 -22.0126 25.3881 3.79118 60.7971 6.31219 8.46183 49.3427 9.52885 7.79999 174.184 21.2811 88.0079 -15.4115 6.82046 0.0697379 66.3723 4.37178 13.9565 30.6363 -2.51096 -6.16348 -0.962482 7.84608 -89.9962 11.1834 -1.91381 0.19484 -0.486136 -1.90336 0.278902 -23.0322 -1.88385 -0.389562 -3.01958 -1.88384 -0.389559 97.8249 -50.9954 -88.6555 34.8414 -0.687837 2.25628 1.4567 -13.9416 -12.4446 -11.5677 -0.718963 2.11778 -81.2851 -52.2113 92.0003 -33.1889 -8.36488 -33.7188 12.8791 47.0767 -25.4165 0.951083 -0.283568 -11.0406 16.0786 1.93897 -11.9383 -21.7396 2.54735 15.6187 
-113.403 92.9446 103.276 104.754 57.3852 79.1475 -177.862 -13.2814 89.7375 -32.3364 26.7633 6.38089 58.5119 2.045 4.32943 57.8582 13.4732 6.80769 173.792 22.4839 89.5447 -21.8389 2.08487 1.28262 63.3244 6.07189 12.231 27.3145 2.26021 -3.89658 -0.900976 7.77885 -90.4055 11.3117 -1.98181 -0.609856 -0.357828 -2.00671 -0.522018 -22.9014 -1.70686 -1.1774 -2.88873 -1.70687 -1.1774 97.0926 -50.7659 -89.8018 33.592 0.424907 3.23667 2.57123 -14.1061 -9.98015 -13.2444 -0.896877 2.75684 -80.9892 -52.8945 92.4763 -32.93 -7.68996 -30.8952 15.385 45.6514 -30.1689 1.74004 -0.340429 -11.3221 19.4416 1.87693 -8.97254 -23.8769 1.53216 15.9775 
-104.71 92.0629 95.6728 105.718 56.2844 81.0421 -177.016 -6.78024 94.5264 -48.1301 14.9531 6.55015 47.9394 -10.3887 -5.12128 52.8089 11.475 9.48906 172.874 21.4526 93.1772 -32.7927 -7.80073 3.28937 63.1646 4.64133 3.33754 25.1855 4.63997 1.22092 -0.86159 7.75128 -90.9815 11.3523 -2.17205 -1.73939 -0.317844 -2.2465 -1.64211 -22.8521 -1.54901 -2.31164 -2.83944 -1.54902 -2.31165 97.4083 -50.525 -89.3381 30.96 0.333054 0.898581 3.45884 -13.274 -8.66472 -15.4513 -1.23332 4.16948 -81.5224 -54.0373 91.7689 -33.2517 -10.7562 -23.5957 14.1748 48.292 -26.9736 0.824879 -0.296394 -11.6151 20.4514 2.66946 -7.57703 -23.5491 1.7863 17.0137 
